<svg width="13" height="19" viewBox="0 0 13 19" fill="none" xmlns="http://www.w3.org/2000/svg">
<path d="M8.328 13.392C8.328 12.688 7.504 11.944 5.856 11.16C5.376 10.952 4.952 10.76 4.584 10.584C4.232 10.392 3.832 10.136 3.384 9.816C2.952 9.48 2.592 9.136 2.304 8.784C2.032 8.432 1.792 7.992 1.584 7.464C1.392 6.936 1.304 6.368 1.32 5.76C1.32 4.416 1.816 3.272 2.808 2.328C3.8 1.384 5.112 0.912 6.744 0.912C8.888 0.912 10.536 1.528 11.688 2.76L9.624 5.64C9.16 5.208 8.752 4.912 8.4 4.752C8.064 4.592 7.624 4.512 7.08 4.512C6.552 4.512 6.136 4.624 5.832 4.848C5.544 5.072 5.4 5.376 5.4 5.76C5.4 6.192 5.568 6.576 5.904 6.912C6.256 7.248 6.688 7.528 7.2 7.752C7.728 7.96 8.296 8.224 8.904 8.544C9.512 8.864 10.072 9.208 10.584 9.576C11.112 9.928 11.544 10.432 11.88 11.088C12.232 11.728 12.408 12.48 12.408 13.344C12.408 14.784 11.856 15.968 10.752 16.896C9.68 17.824 8.312 18.288 6.648 18.288C5.432 18.288 4.28 18.04 3.192 17.544C2.088 17.048 1.344 16.376 0.96 15.528L3.144 12.912C3.576 13.472 4.12 13.912 4.776 14.232C5.432 14.536 6.088 14.688 6.744 14.688C7.24 14.688 7.624 14.576 7.896 14.352C8.184 14.112 8.328 13.792 8.328 13.392Z" fill="#42556E"/>
</svg>
