<svg width="43" height="18" viewBox="0 0 43 18" fill="none" xmlns="http://www.w3.org/2000/svg">
<path d="M0.16 17V0.2H10.288V3.8H4V6.464C4.464 6.368 5.104 6.32 5.92 6.32C7.552 6.32 8.864 6.792 9.856 7.736C10.864 8.68 11.368 9.936 11.368 11.504C11.368 13.28 10.792 14.664 9.64 15.656C8.504 16.632 6.904 17.12 4.84 17.12C3.992 17.12 3.056 17.096 2.032 17.048C1.744 17.048 1.448 17.04 1.144 17.024C0.856 17.024 0.632 17.016 0.472 17C0.328 17 0.224 17 0.16 17ZM5.608 9.92C5.112 9.92 4.576 9.968 4 10.064V13.4C4.768 13.48 5.248 13.52 5.44 13.52C6.832 13.52 7.528 12.944 7.528 11.792C7.528 11.232 7.368 10.784 7.048 10.448C6.728 10.096 6.248 9.92 5.608 9.92ZM14.7325 17V0.2H24.8605V3.8H18.5725V6.464C19.0365 6.368 19.6765 6.32 20.4925 6.32C22.1245 6.32 23.4365 6.792 24.4285 7.736C25.4365 8.68 25.9405 9.936 25.9405 11.504C25.9405 13.28 25.3645 14.664 24.2125 15.656C23.0765 16.632 21.4765 17.12 19.4125 17.12C18.5645 17.12 17.6285 17.096 16.6045 17.048C16.3165 17.048 16.0205 17.04 15.7165 17.024C15.4285 17.024 15.2045 17.016 15.0445 17C14.9005 17 14.7965 17 14.7325 17ZM20.1805 9.92C19.6845 9.92 19.1485 9.968 18.5725 10.064V13.4C19.3405 13.48 19.8205 13.52 20.0125 13.52C21.4045 13.52 22.1005 12.944 22.1005 11.792C22.1005 11.232 21.9405 10.784 21.6205 10.448C21.3005 10.096 20.8205 9.92 20.1805 9.92ZM42.865 17H39.025V3.8H33.145V17H29.305V0.2H42.865V17Z" fill="#42556E"/>
</svg>
