<svg width="30" height="18" viewBox="0 0 30 18" fill="none" xmlns="http://www.w3.org/2000/svg">
<path d="M0.16 17V0.2H10.288V3.8H4V6.464C4.464 6.368 5.104 6.32 5.92 6.32C7.552 6.32 8.864 6.792 9.856 7.736C10.864 8.68 11.368 9.936 11.368 11.504C11.368 13.28 10.792 14.664 9.64 15.656C8.504 16.632 6.904 17.12 4.84 17.12C3.992 17.12 3.056 17.096 2.032 17.048C1.744 17.048 1.448 17.04 1.144 17.024C0.856 17.024 0.632 17.016 0.472 17C0.328 17 0.224 17 0.16 17ZM5.608 9.92C5.112 9.92 4.576 9.968 4 10.064V13.4C4.768 13.48 5.248 13.52 5.44 13.52C6.832 13.52 7.528 12.944 7.528 11.792C7.528 11.232 7.368 10.784 7.048 10.448C6.728 10.096 6.248 9.92 5.608 9.92ZM25.2925 0.2H29.1565L23.5165 13.016C22.9245 14.376 22.2285 15.384 21.4285 16.04C20.6445 16.68 19.7005 17 18.5965 17C18.1325 17 17.6525 16.928 17.1565 16.784C16.6605 16.624 16.2925 16.448 16.0525 16.256L17.3965 12.992C17.8125 13.264 18.2045 13.4 18.5725 13.4C19.1965 13.4 19.6125 13.176 19.8205 12.728L20.0365 12.224L12.8125 0.2H17.1565L21.8845 8.408L25.2925 0.2Z" fill="#42556E"/>
</svg>
