<svg width="55" height="17" viewBox="0 0 55 17" fill="none" xmlns="http://www.w3.org/2000/svg">
<path d="M4 11.288V17H0.16V0.2C0.896 0.2 1.704 0.191999 2.584 0.176001C3.48 0.16 4.384 0.151999 5.296 0.151999C7.664 0.151999 9.392 0.68 10.48 1.736C11.552 2.76 12.088 4.088 12.088 5.72C12.088 7.288 11.52 8.624 10.384 9.728C9.248 10.816 7.744 11.36 5.872 11.36C5.04 11.36 4.416 11.336 4 11.288ZM5.68 3.752C5.664 3.752 5.592 3.76 5.464 3.776C5.336 3.776 5.136 3.784 4.864 3.8C4.592 3.8 4.304 3.8 4 3.8V7.64C4.672 7.72 5.256 7.76 5.752 7.76C6.408 7.76 6.944 7.592 7.36 7.256C7.792 6.904 8.008 6.384 8.008 5.696C8.008 4.4 7.232 3.752 5.68 3.752ZM18.8069 17H14.9669V0.2H18.8309L24.0149 7.28L28.9109 0.2H32.5349V17H28.6949V6.296L24.0149 12.848H23.4629L18.8069 6.368V17ZM40.4575 17H36.6175V0.2H40.4815L45.6655 7.28L50.5615 0.2H54.1855V17H50.3455V6.296L45.6655 12.848H45.1135L40.4575 6.368V17Z" fill="#42556E"/>
</svg>
