<svg width="34" height="21" viewBox="0 0 34 21" fill="none" xmlns="http://www.w3.org/2000/svg">
<path d="M11.088 11.232H4.344V7.632H10.944C10.576 6.624 9.936 5.856 9.024 5.328C8.112 4.784 7.008 4.512 5.712 4.512C4.368 4.512 3.152 4.92 2.064 5.736L0.6 2.856C2.088 1.56 4.104 0.912 6.648 0.912C9.112 0.912 11.136 1.712 12.72 3.312C14.32 4.912 15.12 7.008 15.12 9.6C15.12 12.272 14.312 14.392 12.696 15.96C11.096 17.512 8.912 18.288 6.144 18.288C5.008 18.288 3.912 18.12 2.856 17.784C1.816 17.448 1.024 17.032 0.48 16.536L2.112 13.296C3.232 14.224 4.552 14.688 6.072 14.688C7.32 14.688 8.392 14.392 9.288 13.8C10.2 13.208 10.8 12.352 11.088 11.232ZM30.1181 18H17.9981V1.2H21.8381V14.4H27.5981V1.2H31.4381V14.4H33.7181V20.88H30.1181V18Z" fill="#42556E"/>
</svg>
