<svg width="83" height="27" viewBox="0 0 83 27" fill="none" xmlns="http://www.w3.org/2000/svg">
<path d="M31.3977 27H27.424L34.6063 9.55385H38.1358L45.3181 27H41.0976L39.6661 23.3363H32.8293L31.3977 27ZM38.1852 19.5978L36.26 14.6631L34.3102 19.5978H38.1852Z" fill="white"/>
<path d="M50.9853 27H47.0362V9.55385H51.01L56.3412 16.9062L61.3762 9.55385H65.1031V27H61.1541V15.8843L56.3412 22.6883H55.7735L50.9853 15.9591V27Z" fill="white"/>
<path d="M83 27H79.0509V13.2923H73.004V27H69.0549V9.55385H83V27Z" fill="white"/>
<path d="M2.29436 23.7433H2.72624C2.96475 23.7433 3.15811 23.9427 3.15811 24.1887V24.634C3.15811 24.88 2.96475 25.0794 2.72624 25.0794H2.29436C2.05584 25.0794 1.86249 24.88 1.86249 24.634V24.1887C1.86249 23.9427 2.05584 23.7433 2.29436 23.7433Z" fill="white"/>
<path fill-rule="evenodd" clip-rule="evenodd" d="M2.72624 23.8825C2.89022 23.8825 3.02315 24.0196 3.02315 24.1887V24.634C3.02315 24.8031 2.89022 24.9402 2.72624 24.9402H2.29436C2.13038 24.9402 1.99745 24.8031 1.99745 24.634V24.1887C1.99745 24.0196 2.13038 23.8825 2.29436 23.8825H2.72624ZM3.29307 24.1887C3.29307 23.8658 3.03929 23.6041 2.72624 23.6041H2.29436C1.98131 23.6041 1.72753 23.8658 1.72753 24.1887V24.634C1.72753 24.9568 1.98131 25.2185 2.29436 25.2185H2.72624C3.03929 25.2185 3.29307 24.9568 3.29307 24.634V24.1887Z" fill="white"/>
<path d="M4.88554 23.7433H5.31741C5.55593 23.7433 5.74929 23.9427 5.74929 24.1887V24.634C5.74929 24.88 5.55593 25.0794 5.31741 25.0794H4.88554C4.64702 25.0794 4.45367 24.88 4.45367 24.634V24.1887C4.45367 23.9427 4.64702 23.7433 4.88554 23.7433Z" fill="white"/>
<path fill-rule="evenodd" clip-rule="evenodd" d="M5.31741 23.8825C5.48139 23.8825 5.61433 24.0196 5.61433 24.1887V24.634C5.61433 24.8031 5.48139 24.9402 5.31741 24.9402H4.88554C4.72156 24.9402 4.58863 24.8031 4.58863 24.634V24.1887C4.58863 24.0196 4.72156 23.8825 4.88554 23.8825H5.31741ZM5.88425 24.1887C5.88425 23.8658 5.63047 23.6041 5.31741 23.6041H4.88554C4.57249 23.6041 4.31871 23.8658 4.31871 24.1887V24.634C4.31871 24.9568 4.57249 25.2185 4.88554 25.2185H5.31741C5.63047 25.2185 5.88425 24.9568 5.88425 24.634V24.1887Z" fill="white"/>
<path d="M7.47681 23.7433H7.90869C8.1472 23.7433 8.34056 23.9427 8.34056 24.1887V24.634C8.34056 24.88 8.1472 25.0794 7.90869 25.0794H7.47681C7.23829 25.0794 7.04494 24.88 7.04494 24.634V24.1887C7.04494 23.9427 7.23829 23.7433 7.47681 23.7433Z" fill="white"/>
<path fill-rule="evenodd" clip-rule="evenodd" d="M7.90869 23.8825C8.07267 23.8825 8.2056 24.0196 8.2056 24.1887V24.634C8.2056 24.8031 8.07267 24.9402 7.90869 24.9402H7.47681C7.31283 24.9402 7.1799 24.8031 7.1799 24.634V24.1887C7.1799 24.0196 7.31283 23.8825 7.47681 23.8825H7.90869ZM8.47552 24.1887C8.47552 23.8658 8.22174 23.6041 7.90869 23.6041H7.47681C7.16376 23.6041 6.90998 23.8658 6.90998 24.1887V24.634C6.90998 24.9568 7.16376 25.2185 7.47681 25.2185H7.90869C8.22174 25.2185 8.47552 24.9568 8.47552 24.634V24.1887Z" fill="white"/>
<path d="M10.068 23.7433H10.4999C10.7384 23.7433 10.9317 23.9427 10.9317 24.1887V24.634C10.9317 24.88 10.7384 25.0794 10.4999 25.0794H10.068C9.82947 25.0794 9.63612 24.88 9.63612 24.634V24.1887C9.63612 23.9427 9.82947 23.7433 10.068 23.7433Z" fill="white"/>
<path fill-rule="evenodd" clip-rule="evenodd" d="M10.4999 23.8825C10.6638 23.8825 10.7968 24.0196 10.7968 24.1887V24.634C10.7968 24.8031 10.6638 24.9402 10.4999 24.9402H10.068C9.90401 24.9402 9.77108 24.8031 9.77108 24.634V24.1887C9.77108 24.0196 9.90401 23.8825 10.068 23.8825H10.4999ZM11.0667 24.1887C11.0667 23.8658 10.8129 23.6041 10.4999 23.6041H10.068C9.75494 23.6041 9.50116 23.8658 9.50116 24.1887V24.634C9.50116 24.9568 9.75494 25.2185 10.068 25.2185H10.4999C10.8129 25.2185 11.0667 24.9568 11.0667 24.634V24.1887Z" fill="white"/>
<path d="M0.566834 2.81137H4.02182V0.584568C4.02182 0.51333 4.03839 0.44313 4.07014 0.37986C4.10188 0.31659 4.14788 0.262097 4.20428 0.220955C4.26068 0.179813 4.32582 0.153223 4.39425 0.143416C4.46267 0.133609 4.53237 0.140871 4.59751 0.164593L11.8703 2.81137H17.8418C17.9563 2.81137 18.0662 2.85829 18.1472 2.94181C18.2282 3.02533 18.2737 3.13861 18.2737 3.25673V5.03817C18.2737 5.15629 18.2282 5.26957 18.1472 5.35309C18.0662 5.43661 17.9563 5.48353 17.8418 5.48353V8.60105H18.7055C18.8201 8.60105 18.9299 8.64797 19.0109 8.7315C19.0919 8.81502 19.1374 8.9283 19.1374 9.04641V10.3825H20.0012C20.1157 10.3825 20.2255 10.4294 20.3065 10.5129C20.3875 10.5965 20.433 10.7097 20.433 10.8279V14.3907C20.433 14.5089 20.3875 14.6221 20.3065 14.7057C20.2255 14.7892 20.1157 14.8361 20.0012 14.8361H14.8187C14.7041 14.8361 14.5943 14.7892 14.5133 14.7057C14.4323 14.6221 14.3868 14.5089 14.3868 14.3907V10.8279C14.3868 10.7097 14.4323 10.5965 14.5133 10.5129C14.5943 10.4294 14.7041 10.3825 14.8187 10.3825H15.6824V9.04641C15.6824 8.9283 15.7279 8.81502 15.8089 8.7315C15.8899 8.64797 15.9998 8.60105 16.1143 8.60105H16.978V5.48353H8.84413L11.3024 21.9619H12.2274C12.342 21.9619 12.4518 22.0088 12.5328 22.0923C12.6138 22.1758 12.6593 22.2891 12.6593 22.4072V26.4155C12.6593 26.5336 12.6138 26.6469 12.5328 26.7304C12.4518 26.8139 12.342 26.8608 12.2274 26.8608H0.566834C0.452294 26.8608 0.342445 26.8139 0.261453 26.7304C0.180461 26.6469 0.134961 26.5336 0.134961 26.4155V22.4072C0.134961 22.2891 0.180461 22.1758 0.261453 22.0923C0.342445 22.0088 0.452294 21.9619 0.566834 21.9619H1.49191L3.95013 5.48353H0.566834C0.452294 5.48353 0.342445 5.43661 0.261453 5.35309C0.180461 5.26957 0.134961 5.15629 0.134961 5.03817V3.25673C0.134961 3.13861 0.180461 3.02533 0.261453 2.94181C0.342445 2.85829 0.452294 2.81137 0.566834 2.81137ZM15.2505 13.9454H19.5693V11.2732H15.2505V13.9454ZM16.5462 9.49177V10.3825H18.2737V9.49177H16.5462ZM4.88557 1.21386V2.81137H9.27428L4.88557 1.21386ZM3.67633 13.1802L8.23864 10.8279L4.32802 8.81171L3.67633 13.1802ZM8.86745 11.4995L4.17557 13.9182L9.593 16.3623L8.86745 11.4995ZM3.46903 14.5724L2.56468 20.6334L9.07302 17.1008L3.46903 14.5724ZM8.65151 10.0449L8.18509 6.91937L5.0756 8.20201L8.65151 10.0449ZM0.998708 25.9701H11.7956V22.8526H0.998708V25.9701ZM10.4282 21.9619L9.79468 17.7145L2.401 21.7276L2.36602 21.9619H10.4282ZM4.52841 7.46717L8.04905 6.01485L7.97002 5.48353H4.82425L4.52841 7.46717ZM0.998708 4.59281H17.4099V3.70209H0.998708V4.59281Z" fill="white"/>
<path fill-rule="evenodd" clip-rule="evenodd" d="M4.64243 0.0333513C4.55694 0.00222369 4.46546 -0.00730482 4.37567 0.00556566C4.28586 0.0184374 4.20036 0.0533372 4.12634 0.107336C4.05232 0.161336 3.99194 0.232858 3.95027 0.315899C3.9086 0.398939 3.88686 0.491077 3.88686 0.584578V2.67219H0.566834C0.416501 2.67219 0.272322 2.73378 0.166022 2.8434C0.0597187 2.95302 0 3.1017 0 3.25673V5.03817C0 5.1932 0.0597187 5.34188 0.166022 5.4515C0.272322 5.56112 0.416501 5.62271 0.566834 5.62271H3.79282L1.37612 21.8227H0.566834C0.416501 21.8227 0.272324 21.8843 0.166022 21.9939C0.0597187 22.1035 0 22.2522 0 22.4072V26.4155C0 26.5705 0.0597187 26.7192 0.166022 26.8288C0.272324 26.9384 0.416501 27 0.566834 27H12.2274C12.3778 27 12.5219 26.9384 12.6282 26.8288C12.7345 26.7192 12.7943 26.5705 12.7943 26.4155V22.4072C12.7943 22.2522 12.7345 22.1035 12.6282 21.9939C12.5219 21.8843 12.3778 21.8227 12.2274 21.8227H11.4181L9.00144 5.62271H16.8431V8.46188H16.1143C15.964 8.46188 15.8198 8.52346 15.7135 8.63308C15.6072 8.74271 15.5475 8.89139 15.5475 9.04641V10.2433H14.8187C14.6683 10.2433 14.5242 10.3049 14.4179 10.4145C14.3116 10.5241 14.2518 10.6728 14.2518 10.8279V14.3907C14.2518 14.5458 14.3116 14.6944 14.4179 14.8041C14.5242 14.9137 14.6683 14.9753 14.8187 14.9753H20.0012C20.1515 14.9753 20.2957 14.9137 20.402 14.8041C20.5083 14.6944 20.568 14.5458 20.568 14.3907V10.8279C20.568 10.6728 20.5083 10.5241 20.402 10.4145C20.2957 10.3049 20.1515 10.2433 20.0012 10.2433H19.2724V9.04641C19.2724 8.89139 19.2127 8.74271 19.1064 8.63308C19 8.52346 18.8559 8.46188 18.7055 8.46188H17.9768V5.6059C18.0766 5.58066 18.1687 5.52768 18.2426 5.4515C18.3489 5.34188 18.4086 5.1932 18.4086 5.03817V3.25673C18.4086 3.1017 18.3489 2.95302 18.2426 2.8434C18.1363 2.73378 17.9921 2.67219 17.8418 2.67219H11.8934L4.64243 0.0333513ZM4.41283 0.281266C4.45987 0.274524 4.50779 0.279516 4.55257 0.295826L11.8472 2.95054H17.8418C17.9205 2.95054 17.9961 2.9828 18.0517 3.04022C18.1074 3.09765 18.1387 3.17552 18.1387 3.25673V5.03817C18.1387 5.11938 18.1074 5.19726 18.0517 5.25468C17.9961 5.3121 17.9205 5.34436 17.8418 5.34436H17.7068V8.74023H18.7055C18.7843 8.74023 18.8598 8.77249 18.9155 8.82991C18.9712 8.88733 19.0025 8.96521 19.0025 9.04641V10.5217H20.0012C20.0799 10.5217 20.1554 10.5539 20.2111 10.6113C20.2668 10.6688 20.2981 10.7466 20.2981 10.8279V14.3907C20.2981 14.4719 20.2668 14.5498 20.2111 14.6072C20.1554 14.6647 20.0799 14.6969 20.0012 14.6969H14.8187C14.7399 14.6969 14.6644 14.6647 14.6087 14.6072C14.553 14.5498 14.5218 14.4719 14.5218 14.3907V10.8279C14.5218 10.7466 14.553 10.6688 14.6087 10.6113C14.6644 10.5539 14.7399 10.5217 14.8187 10.5217H15.8174V9.04641C15.8174 8.96521 15.8487 8.88733 15.9043 8.82991C15.96 8.77249 16.0355 8.74023 16.1143 8.74023H17.113V5.34436H8.68682L11.1866 22.101H12.2274C12.3062 22.101 12.3817 22.1333 12.4374 22.1907C12.4931 22.2481 12.5243 22.326 12.5243 22.4072V26.4155C12.5243 26.4967 12.4931 26.5746 12.4374 26.632C12.3817 26.6894 12.3062 26.7217 12.2274 26.7217H0.566834C0.488087 26.7217 0.412565 26.6894 0.356885 26.632C0.301203 26.5746 0.269921 26.4967 0.269921 26.4155V22.4072C0.269921 22.326 0.301203 22.2481 0.356885 22.1907C0.412565 22.1333 0.488087 22.101 0.566834 22.101H1.60769L4.10744 5.34436H0.566834C0.488087 5.34436 0.412565 5.3121 0.356885 5.25468C0.301203 5.19726 0.269921 5.11938 0.269921 5.03817V3.25673C0.269921 3.17552 0.301203 3.09765 0.356885 3.04022C0.412565 2.9828 0.488087 2.95054 0.566834 2.95054H4.15679V0.584558C4.15678 0.535583 4.16817 0.48732 4.19 0.443821C4.21183 0.400322 4.24345 0.362859 4.28222 0.334574C4.321 0.30629 4.36578 0.288008 4.41283 0.281266ZM4.75061 1.01715V2.95054H10.0621L4.75061 1.01715ZM8.48647 2.67219H5.02053V1.41058L8.48647 2.67219ZM17.5449 3.56292H0.863747V4.73199H17.5449V3.56292ZM17.275 3.84127V4.45364H1.13367V3.84127H17.275ZM8.08585 5.34436H4.70846L4.35909 7.68691L8.1987 6.10301L8.08585 5.34436ZM7.85418 5.62271L7.8994 5.92668L4.69773 7.24742L4.94004 5.62271H7.85418ZM8.29265 6.72511L4.74636 8.18792L8.82459 10.2897L8.29265 6.72511ZM8.07753 7.11364L8.47844 9.80012L5.40483 8.2161L8.07753 7.11364ZM4.22278 8.60185L3.50325 13.4251L8.54044 10.8278L4.22278 8.60185ZM7.93685 10.8279L3.8494 12.9354L4.43326 9.02157L7.93685 10.8279ZM18.4086 9.3526H16.4112V10.5217H18.4086V9.3526ZM18.1387 9.63095V10.2433H16.6811V9.63095H18.1387ZM19.7042 11.134H15.1156V14.0846H19.7042V11.134ZM19.4343 11.4124V13.8062H15.3855V11.4124H19.4343ZM8.97269 11.2896L3.85746 13.9266L9.7637 16.5913L8.97269 11.2896ZM8.76221 11.7093L9.42229 16.1334L4.49368 13.9098L8.76221 11.7093ZM3.36233 14.3724L2.39056 20.8851L9.3841 17.0892L3.36233 14.3724ZM8.76195 17.1123L2.7388 20.3816L3.57573 14.7725L8.76195 17.1123ZM9.8993 17.5004L2.27796 21.6371L2.20869 22.101H10.5856L9.8993 17.5004ZM9.69007 17.9285L10.2709 21.8227H2.52335L2.52404 21.8181L9.69007 17.9285ZM11.9305 22.7134H0.863747V26.1093H11.9305V22.7134ZM11.6606 22.9918V25.8309H1.13367V22.9918H11.6606Z" fill="white"/>
</svg>
