<svg width="124" height="56" viewBox="0 0 124 56" fill="none" xmlns="http://www.w3.org/2000/svg">
<path d="M45.796 39H40L50.476 13.8H55.624L66.1 39H59.944L57.856 33.708H47.884L45.796 39ZM55.696 28.308L52.888 21.18L50.044 28.308H55.696ZM74.3659 39H68.6059V13.8H74.4019L82.1779 24.42L89.5219 13.8H94.9579V39H89.1979V22.944L82.1779 32.772H81.3499L74.3659 23.052V39ZM121.062 39H115.302V19.2H106.482V39H100.722V13.8H121.062V39Z" fill="white"/>
<path d="M3.3465 34.2959H3.97642C4.32432 34.2959 4.60635 34.5839 4.60635 34.9392V35.5825C4.60635 35.9378 4.32432 36.2258 3.97642 36.2258H3.3465C2.99861 36.2258 2.71658 35.9378 2.71658 35.5825V34.9392C2.71658 34.5839 2.99861 34.2959 3.3465 34.2959Z" fill="white"/>
<path fill-rule="evenodd" clip-rule="evenodd" d="M3.97642 34.4969C4.2156 34.4969 4.4095 34.6949 4.4095 34.9392V35.5825C4.4095 35.8267 4.2156 36.0247 3.97642 36.0247H3.3465C3.10732 36.0247 2.91343 35.8267 2.91343 35.5825V34.9392C2.91343 34.6949 3.10732 34.4969 3.3465 34.4969H3.97642ZM4.8032 34.9392C4.8032 34.4729 4.43304 34.0948 3.97642 34.0948H3.3465C2.88989 34.0948 2.51973 34.4729 2.51973 34.9392V35.5825C2.51973 36.0488 2.88989 36.4268 3.3465 36.4268H3.97642C4.43304 36.4268 4.8032 36.0488 4.8032 35.5825V34.9392Z" fill="white"/>
<path d="M7.12594 34.2959H7.75586C8.10375 34.2959 8.38578 34.5839 8.38578 34.9392V35.5825C8.38578 35.9378 8.10375 36.2258 7.75586 36.2258H7.12594C6.77804 36.2258 6.49601 35.9378 6.49601 35.5825V34.9392C6.49601 34.5839 6.77804 34.2959 7.12594 34.2959Z" fill="white"/>
<path fill-rule="evenodd" clip-rule="evenodd" d="M7.75586 34.4969C7.99504 34.4969 8.18893 34.6949 8.18893 34.9392V35.5825C8.18893 35.8267 7.99504 36.0247 7.75586 36.0247H7.12594C6.88676 36.0247 6.69286 35.8267 6.69286 35.5825V34.9392C6.69286 34.6949 6.88676 34.4969 7.12594 34.4969H7.75586ZM8.58263 34.9392C8.58263 34.4729 8.21247 34.0948 7.75586 34.0948H7.12594C6.66932 34.0948 6.29916 34.4729 6.29916 34.9392V35.5825C6.29916 36.0488 6.66932 36.4268 7.12594 36.4268H7.75586C8.21247 36.4268 8.58263 36.0488 8.58263 35.5825V34.9392Z" fill="white"/>
<path d="M10.9055 34.2959H11.5354C11.8833 34.2959 12.1653 34.5839 12.1653 34.9392V35.5825C12.1653 35.9378 11.8833 36.2258 11.5354 36.2258H10.9055C10.5576 36.2258 10.2756 35.9378 10.2756 35.5825V34.9392C10.2756 34.5839 10.5576 34.2959 10.9055 34.2959Z" fill="white"/>
<path fill-rule="evenodd" clip-rule="evenodd" d="M11.5354 34.4969C11.7746 34.4969 11.9685 34.6949 11.9685 34.9392V35.5825C11.9685 35.8267 11.7746 36.0247 11.5354 36.0247H10.9055C10.6663 36.0247 10.4724 35.8267 10.4724 35.5825V34.9392C10.4724 34.6949 10.6663 34.4969 10.9055 34.4969H11.5354ZM12.3622 34.9392C12.3622 34.4729 11.992 34.0948 11.5354 34.0948H10.9055C10.4489 34.0948 10.0787 34.4729 10.0787 34.9392V35.5825C10.0787 36.0488 10.4489 36.4268 10.9055 36.4268H11.5354C11.992 36.4268 12.3622 36.0488 12.3622 35.5825V34.9392Z" fill="white"/>
<path d="M14.6849 34.2959H15.3149C15.6628 34.2959 15.9448 34.5839 15.9448 34.9392V35.5825C15.9448 35.9378 15.6628 36.2258 15.3149 36.2258H14.6849C14.337 36.2258 14.055 35.9378 14.055 35.5825V34.9392C14.055 34.5839 14.337 34.2959 14.6849 34.2959Z" fill="white"/>
<path fill-rule="evenodd" clip-rule="evenodd" d="M15.3149 34.4969C15.554 34.4969 15.7479 34.6949 15.7479 34.9392V35.5825C15.7479 35.8267 15.554 36.0247 15.3149 36.0247H14.6849C14.4458 36.0247 14.2519 35.8267 14.2519 35.5825V34.9392C14.2519 34.6949 14.4458 34.4969 14.6849 34.4969H15.3149ZM16.1416 34.9392C16.1416 34.4729 15.7715 34.0948 15.3149 34.0948H14.6849C14.2283 34.0948 13.8582 34.4729 13.8582 34.9392V35.5825C13.8582 36.0488 14.2283 36.4268 14.6849 36.4268H15.3149C15.7715 36.4268 16.1416 36.0488 16.1416 35.5825V34.9392Z" fill="white"/>
<path d="M0.826771 4.06087H5.86614V0.844376C5.86613 0.741476 5.8903 0.640076 5.93661 0.548687C5.98291 0.457297 6.05001 0.378585 6.13227 0.319158C6.21453 0.259731 6.30954 0.221322 6.40934 0.207156C6.50915 0.19299 6.61082 0.20348 6.70583 0.237746L17.3137 4.06087H26.0236C26.1907 4.06087 26.3509 4.12864 26.469 4.24929C26.5872 4.36993 26.6535 4.53355 26.6535 4.70417V7.27736C26.6535 7.44797 26.5872 7.6116 26.469 7.73224C26.3509 7.85288 26.1907 7.92066 26.0236 7.92066V12.4237H27.2835C27.4505 12.4237 27.6108 12.4915 27.7289 12.6122C27.847 12.7328 27.9134 12.8964 27.9134 13.067V14.9969H29.1732C29.3403 14.9969 29.5005 15.0647 29.6187 15.1854C29.7368 15.306 29.8032 15.4696 29.8032 15.6402V20.7866C29.8032 20.9572 29.7368 21.1209 29.6187 21.2415C29.5005 21.3621 29.3403 21.4299 29.1732 21.4299H21.6142C21.4471 21.4299 21.2869 21.3621 21.1688 21.2415C21.0506 21.1209 20.9843 20.9572 20.9843 20.7866V15.6402C20.9843 15.4696 21.0506 15.306 21.1688 15.1854C21.2869 15.0647 21.4471 14.9969 21.6142 14.9969H22.874V13.067C22.874 12.8964 22.9404 12.7328 23.0585 12.6122C23.1766 12.4915 23.3369 12.4237 23.5039 12.4237H24.7638V7.92066H12.8998L16.4854 31.7227H17.8346C18.0017 31.7227 18.1619 31.7905 18.2801 31.9111C18.3982 32.0317 18.4646 32.1954 18.4646 32.366V38.1557C18.4646 38.3263 18.3982 38.4899 18.2801 38.6105C18.1619 38.7312 18.0017 38.799 17.8346 38.799H0.826771C0.659706 38.799 0.499483 38.7312 0.38135 38.6105C0.263216 38.4899 0.19685 38.3263 0.19685 38.1557V32.366C0.19685 32.1954 0.263216 32.0317 0.38135 31.9111C0.499483 31.7905 0.659706 31.7227 0.826771 31.7227H2.17606L5.76157 7.92066H0.826771C0.659706 7.92066 0.499483 7.85288 0.38135 7.73224C0.263216 7.6116 0.19685 7.44797 0.19685 7.27736V4.70417C0.19685 4.53355 0.263216 4.36993 0.38135 4.24929C0.499483 4.12864 0.659706 4.06087 0.826771 4.06087ZM22.2441 20.1433H28.5433V16.2835H22.2441V20.1433ZM24.1339 13.7103V14.9969H26.6535V13.7103H24.1339ZM7.12598 1.75336V4.06087H13.5272L7.12598 1.75336ZM5.3622 19.0381L12.0167 15.6402L6.31275 12.728L5.3622 19.0381ZM12.9339 16.6103L6.09039 20.1041L13.9921 23.6345L12.9339 16.6103ZM5.05984 21.0491L3.74079 29.8037L13.2337 24.7011L5.05984 21.0491ZM12.6189 14.5093L11.9386 9.99465L7.40315 11.8473L12.6189 14.5093ZM1.45669 37.5124H17.2047V33.0093H1.45669V37.5124ZM15.2104 31.7227L14.2863 25.5876L3.50205 31.3843L3.45102 31.7227H15.2104ZM6.60504 10.7859L11.7402 8.68811L11.6249 7.92066H7.03654L6.60504 10.7859ZM1.45669 6.63406H25.3937V5.34746H1.45669V6.63406Z" fill="white"/>
<path fill-rule="evenodd" clip-rule="evenodd" d="M6.77134 0.048174C6.64665 0.003212 6.51322 -0.0105514 6.38225 0.00803928C6.25126 0.0266318 6.12655 0.0770427 6.01858 0.155041C5.91062 0.233041 5.82255 0.336351 5.76178 0.456298C5.701 0.576245 5.66928 0.709333 5.66929 0.844391V3.85984H0.826771C0.607498 3.85984 0.397203 3.94879 0.242155 4.10713C0.0871042 4.26548 0 4.48024 0 4.70417V7.27736C0 7.50129 0.0871042 7.71605 0.242155 7.87439C0.397203 8.03273 0.607498 8.12169 0.826771 8.12169H5.53212L2.00718 31.5217H0.826771C0.607498 31.5217 0.397206 31.6106 0.242155 31.769C0.0871042 31.9273 0 32.1421 0 32.366V38.1557C0 38.3796 0.0871042 38.5944 0.242155 38.7527C0.397206 38.911 0.607498 39 0.826771 39H17.8346C18.0539 39 18.2642 38.911 18.4193 38.7527C18.5743 38.5944 18.6614 38.3796 18.6614 38.1557V32.366C18.6614 32.1421 18.5743 31.9273 18.4193 31.769C18.2642 31.6106 18.0539 31.5217 17.8346 31.5217H16.6542L13.1293 8.12169H24.5669V12.2227H23.5039C23.2847 12.2227 23.0744 12.3117 22.9193 12.47C22.7643 12.6284 22.6772 12.8431 22.6772 13.067V14.7959H21.6142C21.3949 14.7959 21.1846 14.8849 21.0296 15.0432C20.8745 15.2015 20.7874 15.4163 20.7874 15.6402V20.7866C20.7874 21.0105 20.8745 21.2253 21.0296 21.3837C21.1846 21.542 21.3949 21.6309 21.6142 21.6309H29.1732C29.3925 21.6309 29.6028 21.542 29.7578 21.3837C29.9129 21.2253 30 21.0105 30 20.7866V15.6402C30 15.4163 29.9129 15.2015 29.7578 15.0432C29.6028 14.8849 29.3925 14.7959 29.1732 14.7959H28.1102V13.067C28.1102 12.8431 28.0231 12.6284 27.8681 12.47C27.713 12.3117 27.5027 12.2227 27.2835 12.2227H26.2205V8.09741C26.3661 8.06096 26.5005 7.98443 26.6082 7.87439C26.7633 7.71605 26.8504 7.50129 26.8504 7.27736V4.70417C26.8504 4.48024 26.7633 4.26548 26.6082 4.10713C26.4532 3.94879 26.2429 3.85984 26.0236 3.85984H17.3474L6.77134 0.048174ZM6.43644 0.406273C6.50506 0.396534 6.57496 0.403746 6.64028 0.427304L17.28 4.2619H26.0236C26.1385 4.2619 26.2486 4.30849 26.3299 4.39144C26.4111 4.47438 26.4567 4.58687 26.4567 4.70417V7.27736C26.4567 7.39465 26.4111 7.50715 26.3299 7.59009C26.2486 7.67303 26.1385 7.71963 26.0236 7.71963H25.8268V12.6248H27.2835C27.3983 12.6248 27.5085 12.6714 27.5897 12.7543C27.6709 12.8373 27.7165 12.9497 27.7165 13.067V15.198H29.1732C29.2881 15.198 29.3982 15.2446 29.4795 15.3275C29.5607 15.4104 29.6063 15.5229 29.6063 15.6402V20.7866C29.6063 20.9039 29.5607 21.0164 29.4795 21.0993C29.3982 21.1823 29.2881 21.2289 29.1732 21.2289H21.6142C21.4993 21.2289 21.3892 21.1823 21.3079 21.0993C21.2267 21.0164 21.1811 20.9039 21.1811 20.7866V15.6402C21.1811 15.5229 21.2267 15.4104 21.3079 15.3275C21.3892 15.2446 21.4993 15.198 21.6142 15.198H23.0709V13.067C23.0709 12.9497 23.1165 12.8373 23.1977 12.7543C23.2789 12.6714 23.3891 12.6248 23.5039 12.6248H24.9606V7.71963H12.6704L16.3165 31.9237H17.8346C17.9495 31.9237 18.0597 31.9703 18.1409 32.0533C18.2221 32.1362 18.2677 32.2487 18.2677 32.366V38.1557C18.2677 38.273 18.2221 38.3855 18.1409 38.4684C18.0597 38.5513 17.9495 38.5979 17.8346 38.5979H0.826771C0.711913 38.5979 0.601758 38.5513 0.520544 38.4684C0.439327 38.3855 0.393701 38.273 0.393701 38.1557V32.366C0.393701 32.2487 0.439327 32.1362 0.520544 32.0533C0.601758 31.9703 0.711913 31.9237 0.826771 31.9237H2.34495L5.99102 7.71963H0.826771C0.711913 7.71963 0.601758 7.67303 0.520544 7.59009C0.439327 7.50715 0.393701 7.39465 0.393701 7.27736V4.70417C0.393701 4.58687 0.439327 4.47438 0.520544 4.39144C0.601758 4.30849 0.711913 4.2619 0.826771 4.2619H6.06299V0.844362C6.06299 0.77362 6.0796 0.703907 6.11144 0.641075C6.14327 0.578243 6.1894 0.524129 6.24595 0.483274C6.3025 0.442418 6.36783 0.416012 6.43644 0.406273ZM6.92913 1.46921V4.2619H14.6763L6.92913 1.46921ZM12.3782 3.85984H7.32283V2.0375L12.3782 3.85984ZM25.5906 5.14643H1.25984V6.83509H25.5906V5.14643ZM25.1969 5.54849V6.43303H1.65354V5.54849H25.1969ZM11.7938 7.71963H6.86765L6.35807 11.1033L11.9584 8.81546L11.7938 7.71963ZM11.4559 8.12169L11.5219 8.56076L6.852 10.4685L7.20543 8.12169H11.4559ZM12.0955 9.71405L6.92293 11.827L12.8713 14.8629L12.0955 9.71405ZM11.7817 10.2753L12.3664 14.1557L7.88337 11.8677L11.7817 10.2753ZM6.15925 12.4249L5.10976 19.3918L12.4569 15.6402L6.15925 12.4249ZM11.5765 15.6402L5.61465 18.6845L6.46626 13.0312L11.5765 15.6402ZM26.8504 13.5093H23.937V15.198H26.8504V13.5093ZM26.4567 13.9114V14.7959H24.3307V13.9114H26.4567ZM28.7402 16.0825H22.0472V20.3444H28.7402V16.0825ZM28.3465 16.4846V19.9423H22.4409V16.4846H28.3465ZM13.0874 16.3072L5.62641 20.1162L14.2411 23.9652L13.0874 16.3072ZM12.7804 16.9134L13.7431 23.3038L6.55438 20.092L12.7804 16.9134ZM4.90421 20.7601L3.48682 30.1674L13.6874 24.6844L4.90421 20.7601ZM12.78 24.7178L3.99475 29.44L5.21547 21.338L12.78 24.7178ZM14.4389 25.2784L3.32259 31.2536L3.22154 31.9237H15.4398L14.4389 25.2784ZM14.1337 25.8968L14.9809 31.5217H3.68051L3.68151 31.515L14.1337 25.8968ZM17.4016 32.8083H1.25984V37.7134H17.4016V32.8083ZM17.0079 33.2103V37.3113H1.65354V33.2103H17.0079Z" fill="white"/>
</svg>
